<?xml version="1.0" encoding="UTF-8"?>
<svg id="Layer_2" data-name="Layer 2" xmlns="http://www.w3.org/2000/svg" viewBox="0 0 2147.73 405.03">
  <defs>
    <style>
      .cls-1 {
        fill: #ba0202;
      }

      .cls-2 {
        fill: #ffbe2e;
      }

      .cls-3 {
        fill: #ff8224;
      }

      .cls-4 {
        fill: #f7821e;
      }

      .cls-5 {
        fill: #f42121;
      }

      .cls-6 {
        fill: none;
        stroke: #000;
        stroke-miterlimit: 10;
        stroke-width: 3px;
      }
    </style>
  </defs>
  <g id="Layer_1-2" data-name="Layer 1">
    <g>
      <path class="cls-4" d="M490.32,28.22c1.81,0,5.54.14,11.18.43,4.29.23,7.71.34,10.25.34l23.83-.62c2.02,0,3.03.7,3.03,2.1,0,1.24-.91,1.97-2.72,2.17-4.09.41-6.82,1.18-8.19,2.29-1.37,1.11-2.43,3.68-3.18,7.72-.75,4.03-1.13,13.16-1.13,27.38,0,16.34.26,28.97.78,37.89.52,8.92,1.56,14.43,3.14,16.52,1.58,2.09,4.2,3.14,7.88,3.14,2.54,0,3.8.67,3.8,2.02,0,1.81-1.37,2.72-4.11,2.72-.78,0-1.92-.03-3.42-.08-9.73-.67-16.38-1.01-19.95-1.01-7.82,0-13.59.23-17.31.7-1.97.21-3.36.31-4.19.31-1.92,0-2.87-.75-2.87-2.25,0-1.19.8-1.89,2.41-2.1,4.4-.57,7.36-1.8,8.89-3.69,1.53-1.89,2.45-6.43,2.76-13.62.31-7.19.47-18.37.47-33.54,0-15.99-.29-26.69-.85-32.1-.57-5.41-1.51-8.73-2.83-9.98-1.32-1.24-3.84-2.02-7.57-2.33-1.97-.16-2.95-.96-2.95-2.41,0-1.35.96-2.02,2.87-2.02Z"/>
      <path class="cls-4" d="M575.49,28.37c24.79,28.21,45.46,50.82,62.02,67.85.05-3.52.08-5.79.08-6.82l.08-30.7c0-7.24-.42-12.42-1.24-15.55-.83-3.13-2.59-5.59-5.28-7.4-2.69-1.81-5.82-2.87-9.39-3.18-1.92-.21-2.87-1.01-2.87-2.41,0-1.5.88-2.25,2.64-2.25.98,0,2.25.09,3.8.28,2.95.33,7.27.49,12.96.49,7.14,0,12.58-.19,16.3-.56,1.55-.14,2.87-.21,3.96-.21,1.97,0,2.95.75,2.95,2.25s-1.32,2.3-3.96,2.56c-3.26.31-6.3,1.68-9.12,4.11-2.82,2.43-4.23,7.21-4.23,14.35l.39,43.9-.54,33.04c0,2.84-.88,4.27-2.64,4.27-.47,0-1.01-.16-1.63-.47-.62-.31-4.18-3.89-10.67-10.75-6.5-6.86-16.15-17.49-28.96-31.91-12.81-14.41-21.8-24.75-26.98-31.01-.1,1.4-.16,14.41-.16,39.05,0,7.61.32,13.57.97,17.89.65,4.32,2.67,7.45,6.06,9.39,3.39,1.94,6.46,2.91,9.2,2.91,1.76,0,2.64.67,2.64,2.02,0,1.55-.93,2.33-2.79,2.33-1.19,0-2.69-.1-4.5-.31-3.11-.42-7.06-.62-11.88-.62-7.71,0-13.3.23-16.77.7-2.17.26-3.73.39-4.66.39-2.02,0-3.03-.85-3.03-2.56,0-1.24,1.63-1.99,4.89-2.25,5.85-.47,9.51-2.48,10.98-6.06,1.48-3.57,2.21-8.44,2.21-14.59,0-26.7-.14-43.03-.43-48.98-.29-5.95-2.15-11.33-5.59-16.15-3.44-4.81-7.6-7.69-12.46-8.62-2.02-.36-3.03-1.16-3.03-2.41,0-1.71,1.06-2.56,3.18-2.56.52,0,1.27.05,2.25.16,1.19.1,3.34.16,6.45.16,6.73,0,12.99.08,18.79.23Z"/>
      <path class="cls-4" d="M725.23,132.63c-2.28,0-11.62-.16-28.02-.47l-17.08.08-10.01-.16c-2.38,0-3.87-.14-4.46-.43-.6-.28-.89-.92-.89-1.9,0-1.5,1.11-2.25,3.34-2.25,4.24,0,7.35-.72,9.32-2.18,1.97-1.45,3.21-4.12,3.73-8,.52-3.88,1-11.63,1.44-23.23.44-11.6.66-22.27.66-32.01,0-13.72-.66-22.15-1.98-25.29-1.32-3.13-4.59-4.83-9.82-5.09-1.86-.16-2.79-.93-2.79-2.33s.83-2.1,2.48-2.1c.98,0,4.32.29,10.01.85,6.31.57,10.71.85,13.2.85l29.42-.62c9.83,0,19.3,1.88,28.41,5.63,9.11,3.76,16.34,9.89,21.7,18.41s8.03,18.17,8.03,28.94c0,7.98-1.57,15.42-4.7,22.34-3.13,6.91-7.67,12.73-13.62,17.44-5.95,4.71-11.85,7.81-17.7,9.28-5.85,1.48-12.73,2.21-20.65,2.21ZM719.95,126.96c10.87,0,19.46-3.81,25.77-11.42,6.31-7.61,9.47-18.49,9.47-32.63s-3.4-26.17-10.21-35.47c-6.81-9.3-16.47-13.95-29-13.95-4.3,0-6.87.25-7.72.74-.85.49-1.39,1-1.59,1.51-.21.52-.52,6.32-.93,17.4l-.93,26.34c-.16,6.47-.23,14.5-.23,24.09,0,7.2.31,12.16.93,14.88.62,2.72,1.99,4.82,4.11,6.29,2.12,1.48,5.56,2.21,10.32,2.21Z"/>
      <path class="cls-4" d="M798.28,28.22c1.81,0,5.54.14,11.18.43,4.29.23,7.71.34,10.25.34l23.83-.62c2.02,0,3.03.7,3.03,2.1,0,1.24-.91,1.97-2.72,2.17-4.09.41-6.82,1.18-8.19,2.29-1.37,1.11-2.43,3.68-3.18,7.72-.75,4.03-1.13,13.16-1.13,27.38,0,16.34.26,28.97.78,37.89.52,8.92,1.56,14.43,3.14,16.52,1.58,2.09,4.2,3.14,7.88,3.14,2.54,0,3.8.67,3.8,2.02,0,1.81-1.37,2.72-4.11,2.72-.78,0-1.92-.03-3.42-.08-9.73-.67-16.38-1.01-19.95-1.01-7.82,0-13.59.23-17.31.7-1.97.21-3.36.31-4.19.31-1.92,0-2.87-.75-2.87-2.25,0-1.19.8-1.89,2.41-2.1,4.4-.57,7.36-1.8,8.89-3.69,1.53-1.89,2.45-6.43,2.76-13.62.31-7.19.47-18.37.47-33.54,0-15.99-.29-26.69-.85-32.1-.57-5.41-1.51-8.73-2.83-9.98-1.32-1.24-3.84-2.02-7.57-2.33-1.97-.16-2.95-.96-2.95-2.41,0-1.35.96-2.02,2.87-2.02Z"/>
      <path class="cls-4" d="M902.47,25.65h5.3c6.83,14.8,16.47,38.09,28.93,69.87,5.74,14.59,9.7,23.44,11.87,26.55,2.17,3.1,5.62,4.99,10.33,5.67,1.55.21,2.33.88,2.33,2.02,0,1.6-1.01,2.41-3.03,2.41-1.09,0-3.91-.18-8.46-.54-5.38-.47-9.91-.7-13.59-.7s-8.23.21-13.97.62c-4.3.31-7.12.47-8.46.47-2.38,0-3.57-.75-3.57-2.25,0-1.14.83-1.79,2.48-1.94,6.37-.57,9.55-3.08,9.55-7.51,0-2.08-.93-5.9-2.79-11.45-1.86-5.55-3.85-10.59-5.96-15.13-3.37-.05-5.99-.08-7.86-.08-10.43,0-18.55.03-24.36.08-4.46,12.21-6.69,20.3-6.69,24.27,0,2.83,1.11,5.03,3.34,6.6,2.22,1.57,4.63,2.48,7.22,2.74,1.97.21,2.95,1.01,2.95,2.41s-1.06,2.1-3.18,2.1c-.83,0-3-.13-6.52-.39-4.55-.36-7.87-.54-9.94-.54-4.09,0-7.97.26-11.64.78-.93.16-1.71.23-2.33.23-1.92,0-2.87-.78-2.87-2.33,0-1.14.62-1.89,1.86-2.25,3.1-.88,5.54-1.96,7.3-3.25,1.76-1.29,3.66-3.76,5.71-7.42,2.04-3.66,4.49-9.52,7.35-17.6,6.43-18.11,16.01-42.59,28.72-73.44ZM896.99,52.75l-13.48,34.7,27.45-.39c-1.45-4.06-3.67-9.63-6.67-16.7-3.26-7.65-5.69-13.52-7.3-17.61Z"/>
      <path class="cls-4" d="M994.38,28.37c24.79,28.21,45.46,50.82,62.02,67.85.05-3.52.08-5.79.08-6.82l.08-30.7c0-7.24-.42-12.42-1.24-15.55-.83-3.13-2.59-5.59-5.28-7.4-2.69-1.81-5.82-2.87-9.39-3.18-1.92-.21-2.87-1.01-2.87-2.41,0-1.5.88-2.25,2.64-2.25.98,0,2.25.09,3.8.28,2.95.33,7.27.49,12.96.49,7.14,0,12.58-.19,16.3-.56,1.55-.14,2.87-.21,3.96-.21,1.97,0,2.95.75,2.95,2.25s-1.32,2.3-3.96,2.56c-3.26.31-6.3,1.68-9.12,4.11-2.82,2.43-4.23,7.21-4.23,14.35l.39,43.9-.54,33.04c0,2.84-.88,4.27-2.64,4.27-.47,0-1.01-.16-1.63-.47-.62-.31-4.18-3.89-10.67-10.75-6.5-6.86-16.15-17.49-28.96-31.91-12.81-14.41-21.8-24.75-26.98-31.01-.1,1.4-.16,14.41-.16,39.05,0,7.61.32,13.57.97,17.89.65,4.32,2.67,7.45,6.06,9.39,3.39,1.94,6.46,2.91,9.2,2.91,1.76,0,2.64.67,2.64,2.02,0,1.55-.93,2.33-2.79,2.33-1.19,0-2.69-.1-4.5-.31-3.11-.42-7.06-.62-11.88-.62-7.71,0-13.3.23-16.77.7-2.17.26-3.73.39-4.66.39-2.02,0-3.03-.85-3.03-2.56,0-1.24,1.63-1.99,4.89-2.25,5.85-.47,9.51-2.48,10.98-6.06,1.48-3.57,2.21-8.44,2.21-14.59,0-26.7-.14-43.03-.43-48.98-.29-5.95-2.15-11.33-5.59-16.15-3.44-4.81-7.6-7.69-12.46-8.62-2.02-.36-3.03-1.16-3.03-2.41,0-1.71,1.06-2.56,3.18-2.56.52,0,1.27.05,2.25.16,1.19.1,3.34.16,6.45.16,6.73,0,12.99.08,18.79.23Z"/>
      <path d="M1159.42,72.84c-8.33-8.48-12.5-16.45-12.5-23.9,0-5.9,2.22-11.02,6.68-15.37s9.94-6.52,16.46-6.52c6,0,10.85,1.7,14.56,5.08,3.7,3.39,5.55,7.18,5.55,11.37,0,6.42-4.22,13.3-12.65,20.65,9.78,7.75,18.92,19.07,27.4,33.96,4.4-7.13,6.6-13.98,6.6-20.54,0-5.48-2.67-8.42-8-8.84-2.17-.21-3.26-.98-3.26-2.33s1.47-2.1,4.42-2.1l15.53.31c3.05,0,6.6-.17,10.63-.52,1.91-.17,3.21-.26,3.88-.26,1.81,0,2.72.73,2.72,2.17,0,1.04-1.04,1.81-3.11,2.33-3.42.88-6.03,2.02-7.84,3.42-1.81,1.4-3.21,2.91-4.19,4.54-.98,1.63-3.31,6.25-6.99,13.87-2.38,4.82-4.87,9.06-7.45,12.74,6.57,13.49,12.65,20.24,18.24,20.24,2.28,0,4.74-.88,7.38-2.64,1.45-.98,2.43-1.48,2.95-1.48,1.5,0,2.25.73,2.25,2.17s-2.76,3.73-8.27,6.83c-5.51,3.11-10.88,4.66-16.11,4.66-4.09,0-7.63-1.27-10.63-3.82-3-2.55-6-6.29-9.01-11.23-12.21,10.04-23.57,15.06-34.08,15.06-8.07,0-14.7-2.33-19.87-6.98-5.18-4.65-7.76-10.86-7.76-18.61,0-4.39,1.24-9.05,3.73-13.96,2.48-4.91,10.07-11.68,22.75-20.32ZM1162.91,76.56c-7.56,6.15-11.33,12.87-11.33,20.16,0,5.74,1.98,11.26,5.94,16.55,3.96,5.3,9.12,7.95,15.49,7.95,5.79,0,12.16-2.76,19.1-8.3-7.61-14.21-17.34-26.33-29.19-36.36ZM1173.39,60.35c5.02-4.95,7.53-10.11,7.53-15.48,0-4.13-1.19-7.28-3.57-9.44-2.38-2.17-5-3.25-7.84-3.25-2.43,0-4.55.93-6.37,2.79-1.81,1.86-2.72,4.23-2.72,7.12,0,5.42,4.32,11.51,12.96,18.27Z"/>
      <path class="cls-5" d="M1373.36,35.51c1.09-1.35,2.23-2.85,3.42-4.5,1.4-2.02,2.56-3.03,3.49-3.03,1.03,0,1.71.26,2.02.78.31.52.57,2.12.78,4.81l1.55,24.22.16,3.1c0,2.07-.83,3.1-2.48,3.1-1.09,0-1.97-.85-2.64-2.56-2.12-5.48-5.95-11.58-11.47-18.28-5.52-6.7-12.48-10.05-20.87-10.05-6.22,0-11.44,1.8-15.66,5.4-4.22,3.6-7.51,8.53-9.87,14.79-2.36,6.26-3.54,13.77-3.54,22.51,0,14.96,3.29,26.85,9.87,35.67,6.58,8.82,14.76,13.24,24.55,13.24,10.62,0,20.35-6.42,29.21-19.25,1.08-1.55,2.11-2.33,3.08-2.33,1.64,0,2.47.83,2.47,2.48,0,3.42-4.08,8.85-12.23,16.3-8.15,7.45-18.36,11.18-30.62,11.18-16.25,0-29.09-5.02-38.5-15.06-9.42-10.04-14.13-22.38-14.13-37.03s4.75-27.26,14.26-38c9.5-10.74,21.51-16.11,36.01-16.11,10.2,0,20.59,2.87,31.16,8.62Z"/>
      <path class="cls-5" d="M1442.31,25.65h5.3c6.83,14.8,16.47,38.09,28.93,69.87,5.74,14.59,9.7,23.44,11.87,26.55,2.17,3.1,5.62,4.99,10.33,5.67,1.55.21,2.33.88,2.33,2.02,0,1.6-1.01,2.41-3.03,2.41-1.09,0-3.91-.18-8.46-.54-5.38-.47-9.91-.7-13.58-.7s-8.23.21-13.97.62c-4.3.31-7.12.47-8.46.47-2.38,0-3.57-.75-3.57-2.25,0-1.14.83-1.79,2.48-1.94,6.37-.57,9.55-3.08,9.55-7.51,0-2.08-.93-5.9-2.79-11.45-1.86-5.55-3.85-10.59-5.96-15.13-3.37-.05-5.99-.08-7.86-.08-10.43,0-18.55.03-24.36.08-4.46,12.21-6.69,20.3-6.69,24.27,0,2.83,1.11,5.03,3.34,6.6,2.22,1.57,4.63,2.48,7.22,2.74,1.97.21,2.95,1.01,2.95,2.41s-1.06,2.1-3.18,2.1c-.83,0-3-.13-6.52-.39-4.55-.36-7.87-.54-9.94-.54-4.09,0-7.97.26-11.64.78-.93.16-1.71.23-2.33.23-1.92,0-2.87-.78-2.87-2.33,0-1.14.62-1.89,1.86-2.25,3.11-.88,5.54-1.96,7.3-3.25,1.76-1.29,3.66-3.76,5.71-7.42,2.04-3.66,4.49-9.52,7.35-17.6,6.43-18.11,16.01-42.59,28.72-73.44ZM1436.83,52.75l-13.48,34.7,27.45-.39c-1.45-4.06-3.67-9.63-6.67-16.7-3.26-7.65-5.69-13.52-7.3-17.61Z"/>
      <path class="cls-5" d="M1534.22,28.37c24.79,28.21,45.46,50.82,62.02,67.85.05-3.52.08-5.79.08-6.82l.08-30.7c0-7.24-.42-12.42-1.24-15.55-.83-3.13-2.59-5.59-5.28-7.4-2.69-1.81-5.82-2.87-9.39-3.18-1.92-.21-2.87-1.01-2.87-2.41,0-1.5.88-2.25,2.64-2.25.98,0,2.25.09,3.8.28,2.95.33,7.27.49,12.96.49,7.14,0,12.58-.19,16.3-.56,1.55-.14,2.87-.21,3.96-.21,1.97,0,2.95.75,2.95,2.25s-1.32,2.3-3.96,2.56c-3.26.31-6.3,1.68-9.12,4.11-2.82,2.43-4.23,7.21-4.23,14.35l.39,43.9-.54,33.04c0,2.84-.88,4.27-2.64,4.27-.47,0-1.01-.16-1.63-.47-.62-.31-4.18-3.89-10.67-10.75-6.5-6.86-16.15-17.49-28.96-31.91-12.81-14.41-21.8-24.75-26.98-31.01-.1,1.4-.16,14.41-.16,39.05,0,7.61.32,13.57.97,17.89.65,4.32,2.67,7.45,6.05,9.39,3.39,1.94,6.46,2.91,9.2,2.91,1.76,0,2.64.67,2.64,2.02,0,1.55-.93,2.33-2.79,2.33-1.19,0-2.69-.1-4.5-.31-3.11-.42-7.06-.62-11.88-.62-7.71,0-13.3.23-16.77.7-2.17.26-3.73.39-4.66.39-2.02,0-3.03-.85-3.03-2.56,0-1.24,1.63-1.99,4.89-2.25,5.85-.47,9.51-2.48,10.98-6.06,1.48-3.57,2.21-8.44,2.21-14.59,0-26.7-.14-43.03-.43-48.98-.29-5.95-2.15-11.33-5.59-16.15-3.44-4.81-7.6-7.69-12.46-8.62-2.02-.36-3.03-1.16-3.03-2.41,0-1.71,1.06-2.56,3.18-2.56.52,0,1.27.05,2.25.16,1.19.1,3.34.16,6.45.16,6.73,0,12.99.08,18.79.23Z"/>
      <path class="cls-5" d="M1669.22,25.65h5.3c6.83,14.8,16.47,38.09,28.93,69.87,5.74,14.59,9.7,23.44,11.87,26.55,2.17,3.1,5.62,4.99,10.33,5.67,1.55.21,2.33.88,2.33,2.02,0,1.6-1.01,2.41-3.03,2.41-1.09,0-3.91-.18-8.46-.54-5.38-.47-9.91-.7-13.59-.7s-8.23.21-13.97.62c-4.3.31-7.12.47-8.46.47-2.38,0-3.57-.75-3.57-2.25,0-1.14.83-1.79,2.48-1.94,6.37-.57,9.55-3.08,9.55-7.51,0-2.08-.93-5.9-2.79-11.45-1.86-5.55-3.85-10.59-5.96-15.13-3.37-.05-5.99-.08-7.86-.08-10.43,0-18.55.03-24.36.08-4.46,12.21-6.69,20.3-6.69,24.27,0,2.83,1.11,5.03,3.34,6.6,2.22,1.57,4.63,2.48,7.22,2.74,1.97.21,2.95,1.01,2.95,2.41s-1.06,2.1-3.18,2.1c-.83,0-3-.13-6.52-.39-4.55-.36-7.87-.54-9.94-.54-4.09,0-7.97.26-11.64.78-.93.16-1.71.23-2.33.23-1.92,0-2.87-.78-2.87-2.33,0-1.14.62-1.89,1.86-2.25,3.11-.88,5.54-1.96,7.3-3.25,1.76-1.29,3.66-3.76,5.71-7.42,2.04-3.66,4.49-9.52,7.35-17.6,6.43-18.11,16.01-42.59,28.72-73.44ZM1663.74,52.75l-13.48,34.7,27.45-.39c-1.45-4.06-3.67-9.63-6.67-16.7-3.26-7.65-5.7-13.52-7.3-17.61Z"/>
      <path class="cls-5" d="M1790.01,132.63c-2.28,0-11.62-.16-28.02-.47l-17.08.08-10.01-.16c-2.38,0-3.87-.14-4.46-.43-.6-.28-.89-.92-.89-1.9,0-1.5,1.11-2.25,3.34-2.25,4.24,0,7.35-.72,9.32-2.18,1.97-1.45,3.21-4.12,3.73-8,.52-3.88,1-11.63,1.44-23.23.44-11.6.66-22.27.66-32.01,0-13.72-.66-22.15-1.98-25.29-1.32-3.13-4.59-4.83-9.82-5.09-1.86-.16-2.79-.93-2.79-2.33s.83-2.1,2.48-2.1c.98,0,4.32.29,10.01.85,6.31.57,10.71.85,13.2.85l29.42-.62c9.83,0,19.3,1.88,28.41,5.63,9.11,3.76,16.34,9.89,21.7,18.41s8.04,18.17,8.04,28.94c0,7.98-1.57,15.42-4.7,22.34-3.13,6.91-7.67,12.73-13.62,17.44-5.95,4.71-11.85,7.81-17.7,9.28-5.85,1.48-12.73,2.21-20.65,2.21ZM1784.73,126.96c10.87,0,19.46-3.81,25.77-11.42,6.31-7.61,9.47-18.49,9.47-32.63s-3.4-26.17-10.21-35.47c-6.81-9.3-16.47-13.95-29-13.95-4.3,0-6.87.25-7.72.74-.85.49-1.38,1-1.59,1.51-.21.52-.52,6.32-.93,17.4l-.93,26.34c-.16,6.47-.23,14.5-.23,24.09,0,7.2.31,12.16.93,14.88.62,2.72,1.99,4.82,4.12,6.29,2.12,1.48,5.56,2.21,10.32,2.21Z"/>
      <path class="cls-5" d="M1863.06,28.22c1.81,0,5.54.14,11.18.43,4.3.23,7.71.34,10.25.34l23.83-.62c2.02,0,3.03.7,3.03,2.1,0,1.24-.91,1.97-2.72,2.17-4.09.41-6.82,1.18-8.19,2.29-1.37,1.11-2.43,3.68-3.18,7.72-.75,4.03-1.13,13.16-1.13,27.38,0,16.34.26,28.97.78,37.89.52,8.92,1.57,14.43,3.14,16.52,1.58,2.09,4.2,3.14,7.88,3.14,2.54,0,3.8.67,3.8,2.02,0,1.81-1.37,2.72-4.12,2.72-.78,0-1.92-.03-3.42-.08-9.73-.67-16.38-1.01-19.95-1.01-7.82,0-13.58.23-17.31.7-1.97.21-3.37.31-4.19.31-1.92,0-2.87-.75-2.87-2.25,0-1.19.8-1.89,2.41-2.1,4.4-.57,7.36-1.8,8.89-3.69,1.53-1.89,2.45-6.43,2.76-13.62.31-7.19.47-18.37.47-33.54,0-15.99-.29-26.69-.85-32.1-.57-5.41-1.51-8.73-2.83-9.98-1.32-1.24-3.84-2.02-7.57-2.33-1.97-.16-2.95-.96-2.95-2.41,0-1.35.96-2.02,2.87-2.02Z"/>
      <path class="cls-5" d="M1967.24,25.65h5.3c6.83,14.8,16.47,38.09,28.93,69.87,5.74,14.59,9.7,23.44,11.87,26.55,2.17,3.1,5.62,4.99,10.33,5.67,1.55.21,2.33.88,2.33,2.02,0,1.6-1.01,2.41-3.03,2.41-1.09,0-3.91-.18-8.46-.54-5.38-.47-9.91-.7-13.59-.7s-8.23.21-13.97.62c-4.3.31-7.12.47-8.46.47-2.38,0-3.57-.75-3.57-2.25,0-1.14.83-1.79,2.48-1.94,6.37-.57,9.55-3.08,9.55-7.51,0-2.08-.93-5.9-2.79-11.45-1.86-5.55-3.85-10.59-5.96-15.13-3.37-.05-5.99-.08-7.86-.08-10.43,0-18.55.03-24.36.08-4.46,12.21-6.69,20.3-6.69,24.27,0,2.83,1.11,5.03,3.34,6.6,2.22,1.57,4.63,2.48,7.22,2.74,1.97.21,2.95,1.01,2.95,2.41s-1.06,2.1-3.18,2.1c-.83,0-3-.13-6.52-.39-4.55-.36-7.87-.54-9.94-.54-4.09,0-7.97.26-11.64.78-.93.16-1.71.23-2.33.23-1.92,0-2.87-.78-2.87-2.33,0-1.14.62-1.89,1.86-2.25,3.11-.88,5.54-1.96,7.3-3.25,1.76-1.29,3.66-3.76,5.71-7.42,2.04-3.66,4.49-9.52,7.35-17.6,6.43-18.11,16.01-42.59,28.72-73.44ZM1961.76,52.75l-13.48,34.7,27.45-.39c-1.45-4.06-3.67-9.63-6.67-16.7-3.26-7.65-5.7-13.52-7.3-17.61Z"/>
      <path class="cls-5" d="M2059.16,28.37c24.79,28.21,45.46,50.82,62.02,67.85.05-3.52.08-5.79.08-6.82l.08-30.7c0-7.24-.41-12.42-1.24-15.55-.83-3.13-2.59-5.59-5.28-7.4-2.69-1.81-5.82-2.87-9.39-3.18-1.92-.21-2.87-1.01-2.87-2.41,0-1.5.88-2.25,2.64-2.25.98,0,2.25.09,3.8.28,2.95.33,7.27.49,12.96.49,7.14,0,12.58-.19,16.3-.56,1.55-.14,2.87-.21,3.96-.21,1.97,0,2.95.75,2.95,2.25s-1.32,2.3-3.96,2.56c-3.26.31-6.3,1.68-9.12,4.11-2.82,2.43-4.23,7.21-4.23,14.35l.39,43.9-.54,33.04c0,2.84-.88,4.27-2.64,4.27-.47,0-1.01-.16-1.63-.47s-4.18-3.89-10.67-10.75c-6.5-6.86-16.15-17.49-28.96-31.91-12.81-14.41-21.8-24.75-26.98-31.01-.1,1.4-.16,14.41-.16,39.05,0,7.61.32,13.57.97,17.89.65,4.32,2.67,7.45,6.06,9.39,3.39,1.94,6.46,2.91,9.2,2.91,1.76,0,2.64.67,2.64,2.02,0,1.55-.93,2.33-2.79,2.33-1.19,0-2.69-.1-4.5-.31-3.11-.42-7.06-.62-11.88-.62-7.71,0-13.3.23-16.77.7-2.17.26-3.73.39-4.66.39-2.02,0-3.03-.85-3.03-2.56,0-1.24,1.63-1.99,4.89-2.25,5.85-.47,9.51-2.48,10.98-6.06,1.48-3.57,2.21-8.44,2.21-14.59,0-26.7-.14-43.03-.43-48.98-.29-5.95-2.15-11.33-5.59-16.15-3.44-4.81-7.6-7.69-12.46-8.62-2.02-.36-3.03-1.16-3.03-2.41,0-1.71,1.06-2.56,3.18-2.56.52,0,1.27.05,2.25.16,1.19.1,3.34.16,6.45.16,6.73,0,12.99.08,18.79.23Z"/>
      <path d="M578.86,307.07c10.71,2.28,18.73,5.76,24.07,10.44,5.33,4.68,8,10.59,8,17.73,0,5.95-1.95,11.31-5.86,16.07-3.91,4.76-8.69,7.96-14.36,9.58-5.67,1.63-13.91,2.44-24.73,2.44-2.64,0-6.78-.14-12.42-.42-4.66-.24-8.31-.35-10.95-.35-3.52,0-8.26.23-14.21.7-2.43.21-4.14.31-5.12.31-2.02,0-3.03-.75-3.03-2.25,0-1.14.8-1.81,2.41-2.02,3.26-.41,5.63-.97,7.1-1.67,1.48-.7,2.67-1.87,3.57-3.53.9-1.65,1.36-4.34,1.36-8.07l.62-36.22c0-11.27-.13-20.28-.39-27.03-.26-6.75-.71-11.11-1.36-13.07-.65-1.96-1.55-3.33-2.72-4.11-1.16-.77-2.91-1.24-5.24-1.4-2.07-.1-3.4-.34-4-.7-.6-.36-.89-.96-.89-1.79,0-1.09.61-1.76,1.82-2.02,1.22-.26,4.64-.39,10.29-.39,10.35,0,20.03-.36,29.03-1.09,5.33-.41,9.6-.62,12.81-.62,9.52,0,17.13,2.1,22.82,6.31,5.69,4.21,8.54,9.84,8.54,16.92,0,12.18-9.06,20.93-27.17,26.24ZM557.51,305.89c17.8,0,26.71-7.66,26.71-22.97,0-6.76-1.58-11.8-4.74-15.12-3.16-3.33-6.83-4.99-11.02-4.99-3,0-6.65.72-10.95,2.17-.41,5.21-.62,10.65-.62,16.32,0,4.8.21,13,.62,24.6ZM557.51,311.95c-.41,10.9-.62,19.99-.62,27.28,0,9.61.39,15.11,1.16,16.51.78,1.39,3.23,2.09,7.38,2.09,7.45,0,13.03-1.99,16.73-5.97,3.7-3.98,5.55-9.46,5.55-16.43s-1.92-12.7-5.74-17.17c-3.83-4.47-9.65-6.7-17.47-6.7-1.71,0-4.04.13-6.99.39Z"/>
      <path d="M679.16,310.47c6.97.99,12.71,3.1,17.23,6.35,4.52,3.25,7.91,9.7,10.18,19.35,2.17,9.03,4.47,14.99,6.9,17.87,2.43,2.88,5.85,4.45,10.25,4.71,2.43.16,3.65.93,3.65,2.33,0,1.5-1.97,2.25-5.9,2.25l-29.89-.78c-3.1-3.11-5.23-8.66-6.37-16.64-1.45-10.21-2.95-17.42-4.5-21.62-1.55-4.2-3.88-7.2-6.99-9.02-3.1-1.81-6.7-2.72-10.79-2.72-1.19,0-2.82.08-4.89.23,0,18.22.06,29.44.19,33.65.13,4.22.97,7.25,2.52,9.08,1.55,1.84,4.5,2.86,8.85,3.07,2.33.16,3.49.93,3.49,2.33s-1.01,2.1-3.03,2.1l-23.83-.62c-3.21,0-7.32.13-12.34.39-4.61.26-7.53.39-8.77.39-2.12,0-3.18-.75-3.18-2.25s.93-2.17,2.79-2.17c2.9,0,5.58-.72,8.03-2.17,2.46-1.45,3.69-7.58,3.69-18.4l-.08-14.44.08-27.87c0-14.39-.63-23.17-1.9-26.36-1.27-3.18-4.67-4.83-10.21-4.93-2.17-.05-3.26-.8-3.26-2.25s1.45-2.25,4.35-2.25c14.59,0,26.96-.31,37.11-.93,4.5-.31,8.56-.47,12.19-.47,11.75,0,20.96,2.34,27.64,7.03,6.68,4.68,10.01,10.8,10.01,18.36,0,5.07-1.58,9.63-4.74,13.66-3.16,4.04-7.1,7.04-11.84,9.01-4.74,1.97-10.29,3.21-16.65,3.73ZM658.04,307.21c1.35.05,2.35.08,3.03.08,4.5,0,9.04-.84,13.62-2.52,4.58-1.68,7.81-4.37,9.7-8.07,1.89-3.7,2.83-7.65,2.83-11.84,0-6.47-1.92-11.51-5.74-15.14-3.83-3.62-8.77-5.43-14.83-5.43-2.54,0-5.41.47-8.62,1.4v41.53Z"/>
      <path d="M785.59,258.69c10.45,0,19.6,2.1,27.44,6.29,7.84,4.19,14.13,10.26,18.86,18.2,4.74,7.94,7.1,16.6,7.1,25.97,0,14.49-5.41,27.34-16.22,38.54-10.82,11.21-24.22,16.81-40.21,16.81-14.54,0-26.98-4.63-37.3-13.9-10.33-9.26-15.49-21.79-15.49-37.57,0-14.9,5.34-27.69,16.03-38.35,10.69-10.66,23.95-15.99,39.79-15.99ZM812.68,311.48c0-15.68-2.67-27.48-8-35.4-5.33-7.92-12.08-11.88-20.26-11.88s-14.85,3.97-20.18,11.92c-5.33,7.95-8,19.73-8,35.36s2.55,26.65,7.65,34.93c5.1,8.28,11.94,12.42,20.53,12.42,7.61,0,14.22-3.74,19.83-11.22,5.61-7.48,8.42-19.52,8.42-36.14Z"/>
      <path d="M851.89,259.32c26.88.73,46.76,1.09,59.66,1.09,9.79,0,20.56-.28,32.32-.85,4.19-.21,7.64-.31,10.33-.31,1.03,0,2.77.03,5.21.08.36,2.12.83,6.5,1.4,13.12l1.17,12.27c0,2.02-.85,3.03-2.55,3.03-1.29,0-2.53-1.24-3.72-3.73-1.97-4.19-4.49-7.79-7.57-10.79-3.08-3-6.65-4.99-10.72-5.98-4.07-.98-10.78-1.47-20.16-1.47-.83,7.92-1.24,17.83-1.24,29.73s.23,23.9.7,35.21c.47,11.31,1.03,18.13,1.71,20.46.67,2.33,1.81,4.04,3.42,5.12,1.6,1.09,5.38,1.84,11.33,2.25,2.02.16,3.03.88,3.03,2.17,0,1.45-.88,2.17-2.64,2.17l-2.18-.08-16.09-.39c-12.54,0-20.16.05-22.85.16l-9.79.39c-.78,0-2.38-.05-4.82-.16-1.19-.26-1.79-.9-1.79-1.94,0-1.5.98-2.25,2.95-2.25,4.61,0,8.07-.96,10.4-2.87,2.33-1.91,3.76-4.96,4.31-9.12.54-4.17.82-13.21.82-27.13,0-21.99-.67-39.9-2.02-53.72-8.54,0-14.71.35-18.51,1.05-3.8.7-7.47,2.61-10.98,5.74-3.52,3.13-6.39,7.18-8.62,12.15-.88,1.97-1.89,2.95-3.03,2.95-1.76,0-2.64-.78-2.64-2.33,0-.47.32-3.87.97-10.21.65-6.34,1.39-11.61,2.21-15.8Z"/>
      <path d="M1047.51,306.98l.7-23.56c0-6.61-.67-11.31-2.02-14.1-1.35-2.79-4.17-4.26-8.46-4.42-3.52-.16-5.28-.98-5.28-2.48,0-1.6,1.03-2.41,3.1-2.41,2.38,0,5.99.12,10.85.35,6.25.28,9.74.42,10.47.42,8.78,0,16.48-.21,23.1-.62,1.24-.1,2.12-.16,2.64-.16,1.96,0,2.94.73,2.94,2.17,0,1.6-1.11,2.43-3.34,2.48-3.62.05-6.2.54-7.72,1.48-1.53.93-2.59,2.37-3.18,4.31-.6,1.94-1.07,8.78-1.44,20.51-.36,11.73-.54,19.8-.54,24.2,0,18.23.12,29.39.35,33.49s1.16,6.94,2.79,8.55,4.41,2.41,8.35,2.41c2.43,0,3.65.78,3.65,2.33,0,1.35-.93,2.02-2.79,2.02-.62,0-1.96-.08-4.03-.23l-21.47-.78c-1.29,0-3.77.1-7.44.31-7.03.47-11.58.7-13.64.7-1.86,0-2.79-.75-2.79-2.25,0-1.35.77-2.02,2.32-2.02,3.71,0,6.41-.65,8.11-1.94,1.7-1.29,2.94-4.27,3.71-8.93.77-4.66,1.16-13.95,1.16-27.87,0-1.45-.05-3.62-.16-6.52-9.06-.26-17.08-.39-24.07-.39-8.02,0-14.36.26-19.02.78-.57,10.4-.85,19.82-.85,28.26,0,6,.66,10.17,1.98,12.5,1.32,2.33,4.08,3.6,8.27,3.8,2.02.1,3.03.85,3.03,2.25s-1.06,2.17-3.19,2.17c-.78,0-1.92-.08-3.42-.23-6.17-.57-12.62-.85-19.36-.85-3.16,0-7.39.14-12.67.42-3.73.24-6.14.35-7.23.35-2.69,0-4.04-.78-4.04-2.33,0-1.24,1.06-1.99,3.18-2.25,3.98-.41,6.69-1.27,8.11-2.56,1.42-1.29,2.48-3.74,3.18-7.33.7-3.59,1.11-13.85,1.24-30.75.13-16.91.19-26.14.19-27.69,0-7.65-.27-13.2-.81-16.64-.54-3.44-1.46-5.75-2.76-6.94-1.29-1.19-3.29-1.94-5.98-2.25-2.07-.31-3.37-.61-3.88-.89-.52-.28-.78-.89-.78-1.82,0-1.55.88-2.33,2.64-2.33,2.23,0,5.99.21,11.27.62,2.95.21,6.3.31,10.03.31l21.93-.78c2.54,0,3.81.8,3.81,2.41s-1.04,2.33-3.11,2.33c-3.42,0-5.77.41-7.06,1.24-1.29.83-2.25,2.46-2.87,4.9-.62,2.44-.93,7.16-.93,14.15l.16,22.09c6.57.67,13.66,1.01,21.27,1.01s14.83-.34,21.81-1.01Z"/>
      <path d="M1176.92,260.87c1.66,8.07,3.29,16.15,4.89,24.22,0,1.5-.75,2.25-2.24,2.25-.83,0-1.75-.72-2.78-2.17-5.33-7.73-10.21-12.84-14.64-15.31-4.43-2.47-10.81-3.71-19.15-3.71-4.66,0-9.17.39-13.51,1.16-.93,9.14-1.4,19.17-1.4,30.06,0,1.86.05,4.98.16,9.38l5.9.08c3.67,0,6.84-.5,9.51-1.51,2.67-1.01,4.93-3.16,6.79-6.44,1.86-3.29,2.92-5.4,3.18-6.33.47-1.66,1.27-2.48,2.41-2.48,1.45,0,2.17.62,2.17,1.86,0,.36-.05.78-.16,1.24-.62,3.21-.93,12.81-.93,28.8,0,2.23.2,4.24.6,6.06.11.52.17.96.17,1.32,0,1.45-.83,2.17-2.48,2.17-1.14,0-2.02-1.37-2.64-4.11-1.04-4.81-3.4-8.47-7.09-10.98-3.69-2.51-9.5-3.82-17.44-3.92-.26,8.69-.39,14.41-.39,17.16,0,11.8.18,18.81.54,21.04.36,2.23,1.68,4.02,3.96,5.4,2.28,1.37,6.14,2.06,11.57,2.06,19.73,0,32.7-6.26,38.91-18.79.88-1.76,1.83-2.64,2.86-2.64,1.49,0,2.24.62,2.24,1.86,0,.83-.16,1.89-.47,3.18l-5.05,22.28-28.1-.08c-7.92-.05-15.31-.23-22.16-.54-6.86-.31-12.23-.47-16.11-.47-4.35,0-10.9.26-19.64.78-1.09.1-1.89.16-2.41.16-2.43,0-3.65-.8-3.65-2.41,0-1.45.98-2.17,2.95-2.17,5.02,0,8.4-1.36,10.13-4.07,1.73-2.71,2.6-8.26,2.6-16.64l.47-39.95c0-13.65-.17-22.04-.5-25.17-.34-3.13-1.23-5.25-2.68-6.36-1.45-1.11-4.17-1.95-8.15-2.52-1.66-.21-2.48-.93-2.48-2.17,0-1.55.96-2.33,2.87-2.33l18.71.56,62.65.21Z"/>
      <path d="M1252.77,310.47c6.97.99,12.71,3.1,17.23,6.35,4.52,3.25,7.91,9.7,10.18,19.35,2.17,9.03,4.47,14.99,6.9,17.87,2.43,2.88,5.85,4.45,10.25,4.71,2.43.16,3.65.93,3.65,2.33,0,1.5-1.97,2.25-5.9,2.25l-29.89-.78c-3.1-3.11-5.23-8.66-6.37-16.64-1.45-10.21-2.95-17.42-4.5-21.62-1.55-4.2-3.88-7.2-6.99-9.02s-6.7-2.72-10.79-2.72c-1.19,0-2.82.08-4.89.23,0,18.22.06,29.44.19,33.65.13,4.22.97,7.25,2.52,9.08,1.55,1.84,4.5,2.86,8.85,3.07,2.33.16,3.49.93,3.49,2.33s-1.01,2.1-3.03,2.1l-23.83-.62c-3.21,0-7.32.13-12.34.39-4.61.26-7.53.39-8.77.39-2.12,0-3.18-.75-3.18-2.25s.93-2.17,2.79-2.17c2.9,0,5.58-.72,8.03-2.17,2.46-1.45,3.69-7.58,3.69-18.4l-.08-14.44.08-27.87c0-14.39-.63-23.17-1.9-26.36-1.27-3.18-4.67-4.83-10.21-4.93-2.17-.05-3.26-.8-3.26-2.25s1.45-2.25,4.35-2.25c14.59,0,26.96-.31,37.11-.93,4.5-.31,8.56-.47,12.19-.47,11.75,0,20.96,2.34,27.64,7.03,6.68,4.68,10.01,10.8,10.01,18.36,0,5.07-1.58,9.63-4.74,13.66-3.16,4.04-7.1,7.04-11.84,9.01-4.74,1.97-10.29,3.21-16.65,3.73ZM1231.65,307.21c1.35.05,2.35.08,3.03.08,4.5,0,9.04-.84,13.62-2.52,4.58-1.68,7.81-4.37,9.7-8.07,1.89-3.7,2.83-7.65,2.83-11.84,0-6.47-1.92-11.51-5.75-15.14-3.83-3.62-8.77-5.43-14.83-5.43-2.54,0-5.41.47-8.62,1.4v41.53Z"/>
      <path d="M1366.65,263.59c.67-.66,1.35-1.69,2.02-3.07.78-1.63,1.66-2.45,2.64-2.45,1.4,0,2.25,1.14,2.56,3.42l2.72,21.27.31,2.56c0,1.4-.7,2.1-2.1,2.1-1.04,0-1.79-.25-2.25-.74-.47-.49-1.35-2.09-2.64-4.79-2.23-4.62-5.9-8.77-11.02-12.46-5.12-3.69-10.27-5.53-15.45-5.53s-9.2,1.44-12.54,4.32c-3.34,2.88-5.01,6.5-5.01,10.86,0,3.48,1.55,6.62,4.66,9.42,3.11,2.8,9.08,5.45,17.93,7.94,13.87,3.94,23.26,8.81,28.18,14.6,4.86,5.8,7.3,12.24,7.3,19.32s-1.79,13.32-5.36,18.24c-3.57,4.92-7.84,8.78-12.81,11.6-4.97,2.82-11.33,4.23-19.1,4.23-4.4,0-8.95-.63-13.66-1.9-4.71-1.27-9.58-3.17-14.59-5.71-1.04,1.19-1.92,2.74-2.64,4.66-.83,2.12-1.86,3.18-3.11,3.18s-2.07-1.4-2.33-4.19l-2.25-28.18c-.1-1.24-.16-2.02-.16-2.33,0-1.5.78-2.25,2.33-2.25,1.14,0,2.22,1.29,3.26,3.88,3.16,7.76,7.45,14.23,12.89,19.41,5.38,5.18,11.67,7.76,18.86,7.76,6.11,0,11.04-1.81,14.79-5.43,3.75-3.62,5.63-7.74,5.63-12.34s-1.73-8.49-5.2-11.64c-3.47-3.16-9.7-6.18-18.71-9.08-8.75-2.85-15.25-5.56-19.52-8.15-4.27-2.59-7.69-6.15-10.25-10.67-2.56-4.53-3.84-9.12-3.84-13.78,0-8.12,3.14-15.03,9.43-20.73,6.29-5.69,14.84-8.54,25.66-8.54,5.85,0,13.64,1.74,23.37,5.21Z"/>
      <path d="M1439.47,259.86c1.81,0,5.54.14,11.18.43,4.29.23,7.71.34,10.25.34l23.83-.62c2.02,0,3.03.7,3.03,2.1,0,1.24-.91,1.97-2.72,2.17-4.09.41-6.82,1.18-8.19,2.29-1.37,1.11-2.43,3.68-3.18,7.72-.75,4.03-1.13,13.16-1.13,27.38,0,16.34.26,28.97.78,37.89.52,8.92,1.56,14.43,3.14,16.52,1.58,2.09,4.2,3.14,7.88,3.14,2.54,0,3.8.67,3.8,2.02,0,1.81-1.37,2.72-4.11,2.72-.78,0-1.92-.03-3.42-.08-9.73-.67-16.38-1.01-19.95-1.01-7.82,0-13.59.23-17.31.7-1.97.21-3.37.31-4.19.31-1.92,0-2.87-.75-2.87-2.25,0-1.19.8-1.89,2.41-2.1,4.4-.57,7.36-1.8,8.89-3.69,1.53-1.89,2.45-6.43,2.76-13.62.31-7.19.47-18.37.47-33.54,0-15.99-.29-26.69-.85-32.1-.57-5.41-1.51-8.73-2.83-9.98-1.32-1.24-3.84-2.02-7.57-2.33-1.97-.16-2.95-.96-2.95-2.41,0-1.35.96-2.02,2.87-2.02Z"/>
      <path d="M1524.64,260.01c24.79,28.21,45.46,50.82,62.02,67.85.05-3.52.08-5.79.08-6.82l.08-30.7c0-7.24-.42-12.42-1.24-15.55-.83-3.13-2.59-5.59-5.28-7.4-2.69-1.81-5.82-2.87-9.39-3.18-1.92-.21-2.87-1.01-2.87-2.41,0-1.5.88-2.25,2.64-2.25.98,0,2.25.09,3.8.28,2.95.33,7.27.49,12.96.49,7.14,0,12.58-.19,16.3-.56,1.55-.14,2.87-.21,3.96-.21,1.97,0,2.95.75,2.95,2.25s-1.32,2.3-3.96,2.56c-3.26.31-6.3,1.68-9.12,4.11-2.82,2.43-4.23,7.21-4.23,14.35l.39,43.9-.54,33.04c0,2.84-.88,4.27-2.64,4.27-.47,0-1.01-.16-1.63-.47s-4.18-3.89-10.67-10.75c-6.5-6.86-16.15-17.49-28.96-31.91-12.81-14.41-21.8-24.75-26.98-31.01-.1,1.4-.16,14.41-.16,39.05,0,7.61.32,13.57.97,17.89.65,4.32,2.67,7.45,6.06,9.39,3.39,1.94,6.46,2.91,9.2,2.91,1.76,0,2.64.67,2.64,2.02,0,1.55-.93,2.33-2.79,2.33-1.19,0-2.69-.1-4.5-.31-3.11-.42-7.06-.62-11.88-.62-7.71,0-13.3.23-16.77.7-2.17.26-3.73.39-4.66.39-2.02,0-3.03-.85-3.03-2.56,0-1.24,1.63-1.99,4.89-2.25,5.85-.47,9.51-2.48,10.99-6.06,1.47-3.57,2.21-8.44,2.21-14.59,0-26.7-.14-43.03-.43-48.98-.29-5.95-2.15-11.33-5.59-16.15-3.44-4.81-7.6-7.69-12.46-8.62-2.02-.36-3.03-1.16-3.03-2.41,0-1.71,1.06-2.56,3.18-2.56.52,0,1.27.05,2.25.16,1.19.1,3.34.16,6.45.16,6.73,0,12.99.08,18.79.23Z"/>
      <path d="M1706.76,257.3h5.3c6.83,14.8,16.47,38.09,28.93,69.87,5.74,14.59,9.7,23.44,11.87,26.55,2.17,3.1,5.62,4.99,10.33,5.67,1.55.21,2.33.88,2.33,2.02,0,1.6-1.01,2.41-3.03,2.41-1.09,0-3.91-.18-8.46-.54-5.38-.47-9.91-.7-13.59-.7s-8.23.21-13.97.62c-4.3.31-7.12.47-8.46.47-2.38,0-3.57-.75-3.57-2.25,0-1.14.83-1.79,2.48-1.94,6.37-.57,9.55-3.08,9.55-7.51,0-2.08-.93-5.9-2.79-11.45-1.86-5.55-3.85-10.59-5.96-15.13-3.37-.05-5.99-.08-7.86-.08-10.43,0-18.55.03-24.36.08-4.46,12.21-6.69,20.3-6.69,24.27,0,2.83,1.11,5.03,3.34,6.6,2.22,1.57,4.63,2.48,7.22,2.74,1.97.21,2.95,1.01,2.95,2.41s-1.06,2.1-3.18,2.1c-.83,0-3-.13-6.52-.39-4.55-.36-7.87-.54-9.94-.54-4.09,0-7.97.26-11.64.78-.93.16-1.71.23-2.33.23-1.92,0-2.87-.78-2.87-2.33,0-1.14.62-1.89,1.86-2.25,3.11-.88,5.54-1.96,7.3-3.25,1.76-1.29,3.66-3.76,5.71-7.42,2.04-3.66,4.49-9.52,7.35-17.6,6.43-18.11,16.01-42.59,28.72-73.44ZM1701.28,284.39l-13.48,34.7,27.45-.39c-1.45-4.06-3.67-9.63-6.67-16.7-3.26-7.65-5.7-13.52-7.3-17.61Z"/>
      <path d="M1827.31,310.47c6.97.99,12.71,3.1,17.23,6.35,4.52,3.25,7.91,9.7,10.18,19.35,2.17,9.03,4.47,14.99,6.9,17.87,2.43,2.88,5.85,4.45,10.25,4.71,2.43.16,3.65.93,3.65,2.33,0,1.5-1.97,2.25-5.9,2.25l-29.89-.78c-3.11-3.11-5.23-8.66-6.37-16.64-1.45-10.21-2.95-17.42-4.5-21.62-1.55-4.2-3.88-7.2-6.99-9.02-3.11-1.81-6.7-2.72-10.79-2.72-1.19,0-2.82.08-4.89.23,0,18.22.06,29.44.19,33.65.13,4.22.97,7.25,2.52,9.08,1.55,1.84,4.5,2.86,8.85,3.07,2.33.16,3.49.93,3.49,2.33s-1.01,2.1-3.03,2.1l-23.83-.62c-3.21,0-7.32.13-12.34.39-4.61.26-7.53.39-8.77.39-2.12,0-3.18-.75-3.18-2.25s.93-2.17,2.79-2.17c2.9,0,5.58-.72,8.04-2.17,2.46-1.45,3.69-7.58,3.69-18.4l-.08-14.44.08-27.87c0-14.39-.63-23.17-1.9-26.36-1.27-3.18-4.67-4.83-10.21-4.93-2.17-.05-3.26-.8-3.26-2.25s1.45-2.25,4.35-2.25c14.59,0,26.96-.31,37.11-.93,4.5-.31,8.56-.47,12.19-.47,11.75,0,20.96,2.34,27.64,7.03,6.68,4.68,10.01,10.8,10.01,18.36,0,5.07-1.58,9.63-4.74,13.66-3.16,4.04-7.1,7.04-11.84,9.01-4.74,1.97-10.29,3.21-16.65,3.73ZM1806.19,307.21c1.35.05,2.35.08,3.03.08,4.5,0,9.04-.84,13.62-2.52,4.58-1.68,7.81-4.37,9.7-8.07,1.89-3.7,2.83-7.65,2.83-11.84,0-6.47-1.92-11.51-5.75-15.14-3.83-3.62-8.77-5.43-14.83-5.43-2.54,0-5.41.47-8.62,1.4v41.53Z"/>
      <path d="M1917.74,260.48c1.35,3.21,3.83,8.29,7.46,15.25,3.63,6.96,7.22,14.03,10.77,21.19,3.55,7.17,7.55,14.71,12.01,22.63,3.58,6.26,5.6,9.94,6.06,11.02,12.97-29.03,22.78-52.4,29.44-70.1,12.42,0,23.89-.31,34.4-.93.98-.05,1.71-.08,2.17-.08,2.12,0,3.18.83,3.18,2.48,0,1.45-.83,2.17-2.48,2.17-5.9,0-9.77,2.01-11.61,6.02-1.84,4.01-2.76,13.78-2.76,29.31l-.08,38.04c0,7.76,1.02,13.2,3.07,16.3,2.04,3.1,5.37,4.74,9.98,4.89,2.22.05,3.34.8,3.34,2.25,0,.78-.47,1.42-1.39,1.94l-21.78-.16c-6.67,0-15.79.26-27.36.78-.98-.67-1.47-1.4-1.47-2.17,0-1.19,1.34-1.99,4.02-2.41,2.73-.47,4.7-1.14,5.9-2.02,1.21-.88,2.12-2.51,2.74-4.89s.93-5.88.93-10.49l.31-34.73c0-17.77.03-28,.08-30.69-14.06,32.71-22.76,53.59-26.12,62.65l-7.83,21.04c-.88,2.23-1.76,3.34-2.64,3.34-.93,0-2.05-1.37-3.34-4.11-3.78-7.97-17.28-34.29-40.49-78.95-.26,12.85-.39,30.18-.39,51.99,0,11.5.65,18.77,1.94,21.8,1.29,3.03,4.92,4.8,10.87,5.32,1.97.21,2.95.93,2.95,2.17,0,1.35-.8,2.02-2.41,2.02-.57,0-1.19-.03-1.86-.09-6.21-.46-10.66-.69-13.35-.69-7.35,0-12.91.26-16.69.78-.73.1-1.27.16-1.63.16-1.81,0-2.72-.75-2.72-2.25,0-.72.22-1.23.66-1.51.44-.28,1.62-.63,3.53-1.05,4.97-.93,8.21-2.72,9.74-5.36,1.53-2.64,2.29-6.97,2.29-12.98l.39-44.36c0-10.1-.26-16.78-.78-20.04-.52-3.26-1.79-5.77-3.8-7.54-2.02-1.76-5.31-3.08-9.86-3.96-1.71-.36-2.56-1.22-2.56-2.56,0-1.45.93-2.17,2.79-2.17.41,0,.98.03,1.71.09,5.28.46,16.17.69,32.67.69Z"/>
      <path d="M2090.24,263.59c.67-.66,1.34-1.69,2.02-3.07.78-1.63,1.66-2.45,2.64-2.45,1.4,0,2.25,1.14,2.56,3.42l2.72,21.27.31,2.56c0,1.4-.7,2.1-2.1,2.1-1.04,0-1.79-.25-2.25-.74-.47-.49-1.35-2.09-2.64-4.79-2.23-4.62-5.9-8.77-11.02-12.46-5.12-3.69-10.27-5.53-15.45-5.53s-9.2,1.44-12.54,4.32c-3.34,2.88-5.01,6.5-5.01,10.86,0,3.48,1.55,6.62,4.66,9.42,3.1,2.8,9.08,5.45,17.93,7.94,13.87,3.94,23.26,8.81,28.18,14.6,4.86,5.8,7.3,12.24,7.3,19.32s-1.79,13.32-5.36,18.24-7.84,8.78-12.81,11.6c-4.97,2.82-11.33,4.23-19.1,4.23-4.4,0-8.95-.63-13.66-1.9-4.71-1.27-9.58-3.17-14.59-5.71-1.04,1.19-1.92,2.74-2.64,4.66-.83,2.12-1.86,3.18-3.11,3.18s-2.07-1.4-2.33-4.19l-2.25-28.18c-.1-1.24-.16-2.02-.16-2.33,0-1.5.78-2.25,2.33-2.25,1.14,0,2.22,1.29,3.26,3.88,3.16,7.76,7.45,14.23,12.89,19.41,5.38,5.18,11.67,7.76,18.86,7.76,6.11,0,11.04-1.81,14.79-5.43,3.75-3.62,5.63-7.74,5.63-12.34s-1.73-8.49-5.2-11.64c-3.47-3.16-9.7-6.18-18.71-9.08-8.75-2.85-15.25-5.56-19.52-8.15-4.27-2.59-7.69-6.15-10.25-10.67-2.56-4.53-3.84-9.12-3.84-13.78,0-8.12,3.14-15.03,9.43-20.73,6.29-5.69,14.84-8.54,25.66-8.54,5.85,0,13.64,1.74,23.37,5.21Z"/>
    </g>
    <path class="cls-6" d="M547.7,202.51h1534.26"/>
    <g>
      <path class="cls-2" d="M288.36,219.3c-.59,8.71-2.08,17-4.33,24.62,20.81,8.14,41.02,17.85,53.05,28.14,32.74,28.1,7.62,55.58,7.62,55.58-.38.45-.76.88-1.16,1.3v.02c-.35.45-.66.9-1.07,1.37,0,0-21.87,30.13-55.96,3.67-12.31-9.56-25.64-27.03-37.66-45.47-3.43,1.18-7.01,1.8-10.68,1.8-27.88,0-50.49-35.81-50.49-79.96,0-33.42,12.95-62.04,31.32-73.99,9.59-29.19,23.65-65.52,39.06-83.49,28.1-32.76,55.56-7.62,55.56-7.62.47.35.9.76,1.33,1.14.47.36.92.69,1.4,1.07,0,0,30.11,21.87,3.65,55.96-10.75,13.82-31.46,28.95-52.31,42.04,4.92,5.61,9.18,12.62,12.55,20.62,22.08-9.97,45.59-18.68,62.73-19.98,43.03-3.29,44.69,33.9,44.69,33.9.07.59.09,1.16.12,1.75.09.59.17,1.14.24,1.73,0,0,5.82,36.78-36.97,42.16-16.38,2.06-39.89-1.35-62.66-6.34Z"/>
      <path class="cls-3" d="M339.68,210.19c-27.72-9.84-79.4-8.38-113.54-5.99,34.12-2.85,85.39-9.28,111.3-23.19,40.92-22.02,20.82-56.69,20.82-56.69-.31-.56-.59-1.1-.92-1.63v-.03c-.25-.56-.51-1.12-.79-1.68,0,0-16.08-36.72-58.02-16.74-20.79,9.91-47.09,35.11-68.29,57.97-5.96,6.45-11.54,12.69-16.46,18.37-2.01,2.37-3.95,4.64-5.81,6.75,1.81-2.14,3.75-4.41,5.81-6.75,22.14-26.12,54.04-67.12,62.56-95.4,13.38-44.49-25.35-54.78-25.35-54.78-.64-.2-1.2-.36-1.81-.53h-.03c-.59-.2-1.15-.43-1.76-.64,0,0-37.33-14.6-52.85,29.2-15.39,43.42-3.11,145.62-2.9,147.2.31-.33,6.09-6.52,14.55-16.21-8.31,9.84-13.53,16.49-13.81,16.84l.03.03c.46-.03,9.76-.36,23.65-1.33-13.89,1.15-23.11,2.24-23.57,2.29h-.03v.03c.33.31,6.85,6.42,17.05,15.26-10.29-8.71-17.33-14.22-17.68-14.52.05,1.61,3.44,104.47,25.28,145.06,21.99,40.9,56.67,20.79,56.67,20.79.59-.28,1.1-.59,1.66-.89.56-.25,1.12-.51,1.71-.79,0,0,36.72-16.08,16.72-58.02-12.69-26.65-50.48-62.3-76.34-84.75,26.12,22.12,67.12,54.04,95.4,62.53,44.49,13.38,54.78-25.35,54.78-25.35.2-.61.36-1.2.53-1.78v-.03c.23-.59.43-1.15.64-1.76,0,0,14.6-37.33-29.18-52.85ZM216.51,204.91c2.09-.15,4.28-.33,6.55-.48-2.27.18-4.46.36-6.55.48Z"/>
      <path class="cls-5" d="M215.26,344.89c-10.01,46.36-41.1,47.66-60.03,25.26-6.33-7.49-16.49-13.6-27.31-18.31-11.51-2.57-23.3-3.62-32.85-1.29-28.44,6.94-52.81-12.46-33.56-55.79.53-1.18,1.1-2.32,1.73-3.46-1.25.34-2.54.63-3.8.87-46.65,8.5-59.76-19.73-46.32-45.79,4.52-8.71,6.26-20.44,6.49-32.23-2.03-11.64-5.58-22.92-11.37-30.85-17.32-23.63-8.71-53.56,38.69-52.35,1.28.04,2.56.11,3.85.25-.78-1.02-1.54-2.07-2.23-3.14-25.72-39.85-4.66-62.77,24.57-60.31,9.76.82,21.26-2.04,32.26-6.33,9.94-6.34,19.03-13.95,24.14-22.34,15.2-25.03,46.14-28.54,63.19,15.72,17.02,44.24-31.58,116.28-31.58,116.28l-.03-.02s-.02.05-.02.05c0,0-26.45-.98-54.46-8.54,21.06,19.98,35.65,42.04,35.65,42.04l-.02.03s.03.05.03.05c0,0-11.02,24.06-28.76,47.06,26.53-11.82,52.52-16.86,52.52-16.86v.03s.05,0,.05,0c0,0,59.14,63.65,49.16,110.01Z"/>
      <path class="cls-1" d="M182.92,222.89s42.27,48.91,33.62,83.12c-8.66,34.21-31.85,34.38-45.3,17.2-4.5-5.73-11.9-10.54-19.82-14.35-8.49-2.2-17.24-3.29-24.4-1.82-21.04,4.36-38.4-10.18-24.2-40.91-33.37,4.05-41.88-16.83-31.37-35.52,3.6-6.34,5.21-15.03,5.7-23.79-1.23-8.72-3.56-17.21-7.66-23.23-12.05-17.77-5.29-39.41,28.53-38.02-16.53-29.27-.43-45.11,20.82-42.58,7.25.87,15.86-.95,24.16-3.84,7.57-4.46,14.53-9.87,18.54-15.97,12-18.22,35.1-20.02,46.6,13.37,11.5,33.36-26.58,85.62-26.58,85.62h-.03s0,.03,0,.03c0,0-15.23-1.12-32.96-5.73,12.13,13.57,20.04,26.5,20.04,26.5v.03s0,.03,0,.03c0,0-6.82,13.61-17.89,28.2,17.2-6.03,32.14-8.36,32.14-8.36v.03s.06,0,.06,0Z"/>
      <path d="M204.23,152.45c-5.73.1-11.58,1.05-16.83-1.65-2.55-1.31-3.4-2.84-6.33-2.84-3.25,0-6.44,2.74-9.72,2.54-.33-.02-1.77-.03-2.4-.34-.24.64-.46,1.34-.7,1.66-1.54,1.99-2.78,3.48-5.1,4.56-2.21,1.03-4.77,1.37-7.36,1.36-4.14,4.09-3.1,11.36-8.59,15.27-1.98,1.41-4.15,1.95-6.37,2.71,0,.04.02.07.02.12.22,2.04-.24,4.18-.46,6.21-.82,7.48-4.31,12.91-6.42,19.87-2.26,7.45,6.44,12.9,10.19,18.94,3.62,5.84,3.83,13.67,7.45,19.15,3.47,5.26,10.59,7.42,16.32,8.58,7.77,1.57,13.81,1.85,21.67.64,6.75-1.04,11.47.95,17.95,1.61,6.4.65,13.97-2.87,16.69-8.57,2.45-5.14,2.76-10.43,6.88-14.87,1.77-1.91,4.68-2.98,6.24-4.95,1.61-2.02,2.33-5.63,2.71-8.32.97-6.91-2.61-13.57-2.24-20.61.18-3.41,2.23-7.25,3.43-10.87-2.58-6.57-6.35-12.55-11.05-17.66-4.43-1.52-8.04-3.07-11.83-6.66-5.13-4.85-7.08-6-14.16-5.87Z"/>
    </g>
  </g>
</svg>