<?xml version="1.0" encoding="UTF-8"?>
<svg id="Layer_2" data-name="Layer 2" xmlns="http://www.w3.org/2000/svg" viewBox="0 0 388.26 363.55">
  <defs>
    <style>
      .cls-1 {
        fill: #ba0202;
      }

      .cls-2 {
        fill: #ffbe2e;
      }

      .cls-3 {
        fill: #ff8224;
      }

      .cls-4 {
        fill: #f42121;
      }
    </style>
  </defs>
  <g id="Layer_1-2" data-name="Layer 1">
    <g>
      <path class="cls-2" d="M288.36,198.56c-.59,8.71-2.08,17-4.33,24.62,20.81,8.14,41.02,17.85,53.05,28.14,32.74,28.1,7.62,55.58,7.62,55.58-.38.45-.76.88-1.16,1.3v.02c-.35.45-.66.9-1.07,1.37,0,0-21.87,30.13-55.96,3.67-12.31-9.56-25.64-27.03-37.66-45.47-3.43,1.18-7.01,1.8-10.68,1.8-27.88,0-50.49-35.81-50.49-79.96,0-33.42,12.95-62.04,31.32-73.99,9.59-29.19,23.65-65.52,39.06-83.49,28.1-32.76,55.56-7.62,55.56-7.62.47.35.9.76,1.33,1.14.47.36.92.69,1.4,1.07,0,0,30.11,21.87,3.65,55.96-10.75,13.82-31.46,28.95-52.31,42.04,4.92,5.61,9.18,12.62,12.55,20.62,22.08-9.97,45.59-18.68,62.73-19.98,43.03-3.29,44.69,33.9,44.69,33.9.07.59.09,1.16.12,1.75.09.59.17,1.14.24,1.73,0,0,5.82,36.78-36.97,42.16-16.38,2.06-39.89-1.35-62.66-6.34Z"/>
      <path class="cls-3" d="M339.68,189.45c-27.72-9.84-79.4-8.38-113.54-5.99,34.12-2.85,85.39-9.28,111.3-23.19,40.92-22.02,20.82-56.69,20.82-56.69-.31-.56-.59-1.1-.92-1.63v-.03c-.25-.56-.51-1.12-.79-1.68,0,0-16.08-36.72-58.02-16.74-20.79,9.91-47.09,35.11-68.29,57.97-5.96,6.45-11.54,12.69-16.46,18.37-2.01,2.37-3.95,4.64-5.81,6.75,1.81-2.14,3.75-4.41,5.81-6.75,22.14-26.12,54.04-67.12,62.56-95.4,13.38-44.49-25.35-54.78-25.35-54.78-.64-.2-1.2-.36-1.81-.53h-.03c-.59-.2-1.15-.43-1.76-.64,0,0-37.33-14.6-52.85,29.2-15.39,43.42-3.11,145.62-2.9,147.2.31-.33,6.09-6.52,14.55-16.21-8.31,9.84-13.53,16.49-13.81,16.84l.03.03c.46-.03,9.76-.36,23.65-1.33-13.89,1.15-23.11,2.24-23.57,2.29h-.03v.03c.33.31,6.85,6.42,17.05,15.26-10.29-8.71-17.33-14.22-17.68-14.52.05,1.61,3.44,104.47,25.28,145.06,21.99,40.9,56.67,20.79,56.67,20.79.59-.28,1.1-.59,1.66-.89.56-.25,1.12-.51,1.71-.79,0,0,36.72-16.08,16.72-58.02-12.69-26.65-50.48-62.3-76.34-84.75,26.12,22.12,67.12,54.04,95.4,62.53,44.49,13.38,54.78-25.35,54.78-25.35.2-.61.36-1.2.53-1.78v-.03c.23-.59.43-1.15.64-1.76,0,0,14.6-37.33-29.18-52.85ZM216.51,184.18c2.09-.15,4.28-.33,6.55-.48-2.27.18-4.46.36-6.55.48Z"/>
      <path class="cls-4" d="M215.26,324.16c-10.01,46.36-41.1,47.66-60.03,25.26-6.33-7.49-16.49-13.6-27.31-18.31-11.51-2.57-23.3-3.62-32.85-1.29-28.44,6.94-52.81-12.46-33.56-55.79.53-1.18,1.1-2.32,1.73-3.46-1.25.34-2.54.63-3.8.87C12.8,279.93-.31,251.7,13.13,225.64c4.52-8.71,6.26-20.44,6.49-32.23-2.03-11.64-5.58-22.92-11.37-30.85C-9.07,138.92-.46,109,46.94,110.2c1.28.04,2.56.11,3.85.25-.78-1.02-1.54-2.07-2.23-3.14-25.72-39.85-4.66-62.77,24.57-60.31,9.76.82,21.26-2.04,32.26-6.33,9.94-6.34,19.03-13.95,24.14-22.34,15.2-25.03,46.14-28.54,63.19,15.72,17.02,44.24-31.58,116.28-31.58,116.28l-.03-.02s-.02.05-.02.05c0,0-26.45-.98-54.46-8.54,21.06,19.98,35.65,42.04,35.65,42.04l-.02.03s.03.05.03.05c0,0-11.02,24.06-28.76,47.06,26.53-11.82,52.52-16.86,52.52-16.86v.03s.05,0,.05,0c0,0,59.14,63.65,49.16,110.01Z"/>
      <path class="cls-1" d="M182.92,202.16s42.27,48.91,33.62,83.12c-8.66,34.21-31.85,34.38-45.3,17.2-4.5-5.73-11.9-10.54-19.82-14.35-8.49-2.2-17.24-3.29-24.4-1.82-21.04,4.36-38.4-10.18-24.2-40.91-33.37,4.05-41.88-16.83-31.37-35.52,3.6-6.34,5.21-15.03,5.7-23.79-1.23-8.72-3.56-17.21-7.66-23.23-12.05-17.77-5.29-39.41,28.53-38.02-16.53-29.27-.43-45.11,20.82-42.58,7.25.87,15.86-.95,24.16-3.84,7.57-4.46,14.53-9.87,18.54-15.97,12-18.22,35.1-20.02,46.6,13.37,11.5,33.36-26.58,85.62-26.58,85.62h-.03s0,.03,0,.03c0,0-15.23-1.12-32.96-5.73,12.13,13.57,20.04,26.5,20.04,26.5v.03s0,.03,0,.03c0,0-6.82,13.61-17.89,28.2,17.2-6.03,32.14-8.36,32.14-8.36v.03s.06,0,.06,0Z"/>
      <path d="M204.23,131.71c-5.73.1-11.58,1.05-16.83-1.65-2.55-1.31-3.4-2.84-6.33-2.84-3.25,0-6.44,2.74-9.72,2.54-.33-.02-1.77-.03-2.4-.34-.24.64-.46,1.34-.7,1.66-1.54,1.99-2.78,3.48-5.1,4.56-2.21,1.03-4.77,1.37-7.36,1.36-4.14,4.09-3.1,11.36-8.59,15.27-1.98,1.41-4.15,1.95-6.37,2.71,0,.04.02.07.02.12.22,2.04-.24,4.18-.46,6.21-.82,7.48-4.31,12.91-6.42,19.87-2.26,7.45,6.44,12.9,10.19,18.94,3.62,5.84,3.83,13.67,7.45,19.15,3.47,5.26,10.59,7.42,16.32,8.58,7.77,1.57,13.81,1.85,21.67.64,6.75-1.04,11.47.95,17.95,1.61,6.4.65,13.97-2.87,16.69-8.57,2.45-5.14,2.76-10.43,6.88-14.87,1.77-1.91,4.68-2.98,6.24-4.95,1.61-2.02,2.33-5.63,2.71-8.32.97-6.91-2.61-13.57-2.24-20.61.18-3.41,2.23-7.25,3.43-10.87-2.58-6.57-6.35-12.55-11.05-17.66-4.43-1.52-8.04-3.07-11.83-6.66-5.13-4.85-7.08-6-14.16-5.87Z"/>
    </g>
  </g>
</svg>