<svg xmlns="http://www.w3.org/2000/svg" version="1.1" xmlns:xlink="http://www.w3.org/1999/xlink" xmlns:svgjs="http://svgjs.dev/svgjs" width="647.6" height="674.7"><svg xmlns="http://www.w3.org/2000/svg" version="1.1" viewBox="0 0 647.6 674.7">
  <defs>
    <style>
      .cls-1 {
        fill: #ff8224;
      }

      .cls-2 {
        fill: #ba0202;
      }

      .cls-3 {
        fill: #ffbe2e;
      }

      .cls-4 {
        fill: #ff1515;
      }
    </style>
  </defs>
  <!-- Generator: Adobe Illustrator 28.7.2, SVG Export Plug-In . SVG Version: 1.2.0 Build 154)  -->
  <g>
    <g id="SvgjsG1001">
      <path class="cls-1" d="M324.9,336l57.5-133.1,19.9-42.8c20.8-44.7,79-56.3,115.4-23.1h0s0,0,0,0c34.4,35.3,24.5,93.9-19.5,116.1l-42.1,21.2-131.2,61.6Z"></path>
      <path class="cls-1" d="M324.9,336l134.8-53.4,44.3-16.2c46.3-16.9,95.7,16,97.9,65.3h0s0,0,0,0c-.7,49.3-49,83.7-95.9,68.3l-44.8-14.8-136.4-49.2Z"></path>
      <path class="cls-1" d="M324.9,336l-49.1,138.9-15.2,47.1c-15.1,46.9,19.6,95,68.9,95.4h1.6s1.6,0,1.6,0c49.2-2.5,81.8-52.2,64.6-98.4l-17.3-46.4-55.2-136.6Z"></path>
      <path class="cls-1" d="M325,336l62.5,130.8,21.5,42c22.5,43.9,81.1,53.3,116.2,18.7h0s0,0,0,0c33-36.6,21-94.7-23.9-115.2l-42.9-19.6-133.4-56.7Z"></path>
      <path class="cls-2" d="M328.6,334.3l58.3-171.2c6.1-17.8,6.5-37.1.5-55s-22.7-42.8-58.9-49.3c-72.2-12.9-65.3,53.5-99.2,59.5s-81.8-13.4-112.3,36.5c-30.4,49.9,9.7,94.9,29.4,104.2,19.7,9.3,182.1,75.3,182.1,75.3Z"></path>
      <path class="cls-2" d="M324.5,335.3l-72.6,165.7c-7.5,17.2-20.3,31.8-36.7,40.9-19,10.6-45.7,16.2-76.7-3.4-62-39.2-12.1-83.6-32.9-110.9-20.9-27.3-69.4-45.4-58.2-102.7,11.3-57.3,71.3-63.4,92-57s185.1,67.4,185.1,67.4Z"></path>
      <g>
        <path class="cls-3" d="M330.7,333.2l4.4-116.5,2.5-37.8c2.6-39.5,42.8-65.2,79.7-50.9h0s0,0,0,0c36,16.5,45.7,63.2,19.2,92.6l-25.4,28.2-80.4,84.4Z"></path>
        <path class="cls-3" d="M330.7,333.2l85.4-79.3,28.5-25c29.8-26.1,76.4-15.9,92.4,20.4h0s0,0,0,0c13.8,37.1-12.4,77-51.9,79.1l-37.9,2-116.5,2.8Z"></path>
        <path class="cls-3" d="M330.7,333.2l3.7,118.4,2.3,38.5c2.4,40.2,43.1,66.6,80.7,52.2h0s0,0,0,0c36.7-16.5,46.9-63.9,20.1-94l-25.6-28.8-81.1-86.3Z"></path>
        <path class="cls-3" d="M330.7,333.2l84.9,79.8,28.3,25.2c29.6,26.3,76.3,16.3,92.5-19.8h0s0,0,0,0c14.1-37-11.9-77.1-51.4-79.4l-37.8-2.2-116.5-3.6Z"></path>
        <path class="cls-4" d="M333,330.9l-6.2-145.3c-.6-15.1-6-29.7-15.6-41.3-11.1-13.4-29.5-25.5-58.5-19.8-57.9,11.3-33.4,59.1-57,73.5-23.6,14.4-65.2,13.8-73.5,60-8.3,46.2,34.9,68.3,52.4,69.5,17.5,1.2,158.3,3.4,158.3,3.4Z"></path>
        <path class="cls-4" d="M330.2,332.8l-6.2,145.3c-.6,15.1-6,29.7-15.6,41.3-11.1,13.4-29.5,25.5-58.5,19.8-57.9-11.3-33.4-59.1-57-73.5-23.6-14.4-65.2-13.8-73.5-60s34.9-68.3,52.4-69.5c17.5-1.2,158.3-3.4,158.3-3.4Z"></path>
      </g>
      <path d="M379.9,403.1h0c-7.2-.2-14,3.7-17.5,9.9h0c-4.7,8.3-15.3,11-23.4,6.1h0c-6.2-3.7-13.9-3.8-20.2-.2h0c-8.2,4.8-18.7,1.9-23.3-6.5h0c-3.5-6.3-10.1-10.3-17.4-10.2h0c-9.5,0-17.2-7.8-17-17.3h0c.2-7.2-3.7-14-9.9-17.5h0c-8.3-4.7-11-15.3-6.1-23.4h0c3.7-6.2,3.8-13.9.2-20.2h0c-4.8-8.2-1.9-18.7,6.5-23.3h0c6.3-3.5,10.3-10.1,10.2-17.4h0c0-9.5,7.8-17.2,17.3-17h0c7.2.2,14-3.7,17.5-9.9h0c4.7-8.3,15.3-11,23.4-6.1h0c6.2,3.7,13.9,3.8,20.2.2h0c8.2-4.8,18.7-1.9,23.3,6.5h0c3.5,6.3,10.1,10.3,17.4,10.2h0c9.5,0,17.2,7.8,17,17.3h0c-.2,7.2,3.7,14,9.9,17.5h0c8.3,4.7,11,15.3,6.1,23.4h0c-3.7,6.2-3.8,13.9-.2,20.2h0c4.8,8.2,1.9,18.7-6.5,23.3h0c-6.3,3.5-10.3,10.1-10.2,17.4h0c0,9.5-7.8,17.2-17.3,17Z"></path>
    </g>
  </g>
</svg><style>@media (prefers-color-scheme: light) { :root { filter: none; } }
@media (prefers-color-scheme: dark) { :root { filter: none; } }
</style></svg>